# xmcd
# 
# Track frame offsets:
#     150
#     25572
#     48202
#     77278
#     96605
#     120597
#     133803
#     156774
#     173991
#     193705
#     216830
#     239908
#     254260
#     274258
#     289423
#     307427
#     316725
# 
# Disc length: 4449
# 
# Revision: 0
# Processed by: cddbd v1.5.2PL0 Copyright (c) Steve Scherf et al.
# Submitted via: fre:ac v1.0.17
# 
DISCID=fe115f11
DTITLE=Tom Waits - Glitter and Doom Live [CD1]
DYEAR=2008
DGENRE=Blues
TTITLE0=Lucinda/Ain't Goin' Down
TTITLE1=Singapore
TTITLE2=Get Behind the Mule
TTITLE3=Fannin Street
TTITLE4=Dirt in the Ground
TTITLE5=Such a Scream
TTITLE6=Live Circus
TTITLE7=Goin' Out West
TTITLE8=Falling Down
TTITLE9=The Part You Throw Away
TTITLE10=Trampled Rose
TTITLE11=Metropolitan Glide
TTITLE12=I'll Shoot the Moon
TTITLE13=Green Grass
TTITLE14=Make It Rain
TTITLE15=Story
TTITLE16=Lucky Day
EXTD=
EXTT0=
EXTT1=
EXTT2=
EXTT3=
EXTT4=
EXTT5=
EXTT6=
EXTT7=
EXTT8=
EXTT9=
EXTT10=
EXTT11=
EXTT12=
EXTT13=
EXTT14=
EXTT15=
EXTT16=
PLAYORDER=
